<svg id="Calque_1" data-name="Calque 1" xmlns="http://www.w3.org/2000/svg" viewBox="0 0 144.23 52.86"><defs><style>.cls-1{fill:#becebb;}.cls-2,.cls-5,.cls-6{fill:none;}.cls-2,.cls-4,.cls-5,.cls-6{stroke:#becfba;}.cls-2{stroke-miterlimit:10;stroke-width:4px;}.cls-3,.cls-4{fill:#becfba;}.cls-4,.cls-5,.cls-6{stroke-linecap:round;stroke-linejoin:round;}.cls-4{stroke-width:2px;}.cls-5{stroke-width:1.5px;}</style></defs><title>logoECOFOOD_vert</title><path class="cls-1" d="M137.28,148.42c0-1,1.59-5.39,2.44-7.53,1.37-3.66,1.85-5,2.25-5.8a1.94,1.94,0,0,1,1.81-1.1c1.07,0,5.65-.08,6.21,0a1.3,1.3,0,0,1,1.14,1.33A1.37,1.37,0,0,1,150,136.5c-.33.07-3.47.18-4.5.18a1.47,1.47,0,0,0-1.7,1.22c-.11.37-.55,1.48-.67,1.77a.74.74,0,0,0,.71,1.07c2.06.22,3.36.3,2.95,1.85a1.14,1.14,0,0,1-1.07.92c-.92.11-3.51-.26-4.06.26a13.69,13.69,0,0,0-1.11,2.95c-.3.93.77,1,1.66,1H145c1.14,0,1.77.48,1.77,1.26s-.7,1.36-1.74,1.44a34,34,0,0,1-6.64-.26A1.75,1.75,0,0,1,137.28,148.42Z" transform="translate(-76.53 -111.94)"/><path class="cls-1" d="M151.13,146c.15-3.73,2.92-9.93,5.5-11.71a2.7,2.7,0,0,1,3.91.41,3.21,3.21,0,0,1,.82,3.1,1.29,1.29,0,0,1-2.22.19c-.44-.56-.29-1-.81-1.19-1.55-.33-4.58,7.09-4.39,9.49,0,1.19,1,1.63,1.95.93.74-.56,1.92-2.07,2.33-2.29a1.27,1.27,0,0,1,1.77.55c.78,1.44-2.07,4-3.62,4.62C153.6,151.08,151,149.09,151.13,146Z" transform="translate(-76.53 -111.94)"/><path class="cls-1" d="M163.65,148.09c-2-3.14-.19-8.64,2.65-11.74a5.94,5.94,0,0,1,1.7-1.29,1.66,1.66,0,0,1,2.18.51,2.17,2.17,0,0,0,.89.7c1.14.63,1.47,2.7,1.18,4.32-.59,3.11-1.77,6.36-3.92,8.17A2.93,2.93,0,0,1,163.65,148.09Zm5.79-9.6c-.26-.7-.81-.55-1.4,0a9.61,9.61,0,0,0-2.51,6.2c0,1,.22,1.7.81,1.77C167.82,146.76,170,140.34,169.44,138.49Z" transform="translate(-76.53 -111.94)"/><path class="cls-1" d="M175.42,142.4c.48-1.73,1-3.43,1.33-5.2.52-2,.93-2.51,2.66-2.7,2-.22,3.18-.37,4,0a1.28,1.28,0,0,1,.81,1.11,1.25,1.25,0,0,1-.7,1.22,7.73,7.73,0,0,1-3,.29,1.2,1.2,0,0,0-1.19,1l-.59,2.62c-.14.67.33.82,1,.89,1,0,1.89.11,2,1a1.31,1.31,0,0,1-.82,1.44,20.2,20.2,0,0,1-2.28.48,1.61,1.61,0,0,0-1.41,1.25,25.45,25.45,0,0,1-.92,3.25,1.3,1.3,0,0,1-1.18.74c-.89,0-1.3-.48-1.3-1.4C173.83,147.65,174.28,146.61,175.42,142.4Z" transform="translate(-76.53 -111.94)"/><path class="cls-1" d="M186.39,148.09c-2-3.14-.19-8.64,2.66-11.74a5.8,5.8,0,0,1,1.7-1.29,1.66,1.66,0,0,1,2.18.51,2.08,2.08,0,0,0,.88.7c1.15.63,1.48,2.7,1.18,4.32-.59,3.11-1.77,6.36-3.91,8.17A2.94,2.94,0,0,1,186.39,148.09Zm5.8-9.6c-.26-.7-.82-.55-1.41,0a9.61,9.61,0,0,0-2.51,6.2c0,1,.22,1.7.81,1.77C190.56,146.76,192.74,140.34,192.19,138.49Z" transform="translate(-76.53 -111.94)"/><path class="cls-1" d="M198.17,148.09c-2-3.14-.19-8.64,2.66-11.74a5.77,5.77,0,0,1,1.69-1.29,1.66,1.66,0,0,1,2.18.51,2.17,2.17,0,0,0,.89.7c1.14.63,1.48,2.7,1.18,4.32-.59,3.11-1.77,6.36-3.91,8.17A2.94,2.94,0,0,1,198.17,148.09Zm5.79-9.6c-.25-.7-.81-.55-1.4,0a9.61,9.61,0,0,0-2.51,6.2c0,1,.22,1.7.81,1.77C202.34,146.76,204.52,140.34,204,138.49Z" transform="translate(-76.53 -111.94)"/><path class="cls-1" d="M208.36,147.91a20.71,20.71,0,0,1,1.58-5.51c.34-1,1-2.77,1.44-4.21,1-2.62,1.41-3.95,3.48-3.24a8.23,8.23,0,0,1,5.46,4.79,5.53,5.53,0,0,1-.85,5.77,10.37,10.37,0,0,1-9.82,4A1.35,1.35,0,0,1,208.36,147.91Zm9.6-6a4.68,4.68,0,0,0-2.77-3.84c-.56-.22-.85.11-1.11.85-.33,1-2.29,6.54-2.4,6.91-.11.7.3,1,1,.88C215.15,146.06,217.85,144.25,218,141.92Z" transform="translate(-76.53 -111.94)"/><path class="cls-2" d="M81.48,123.37a27.26,27.26,0,0,1,38.45-2.8" transform="translate(-76.53 -111.94)"/><path class="cls-3" d="M118.88,119.87l3.57-4.61a1.48,1.48,0,0,1,2.54.35l2.2,5.39,2.21,5.39a1.48,1.48,0,0,1-1.57,2l-5.77-.78-5.77-.79a1.48,1.48,0,0,1-1-2.37Z" transform="translate(-76.53 -111.94)"/><path class="cls-4" d="M121.13,132.57s-16.39-.66-18,15.9C103.13,148.47,119.66,151.32,121.13,132.57Z" transform="translate(-76.53 -111.94)"/><path class="cls-5" d="M84.14,131.77s17.29-.7,19,16.77C103.13,148.54,85.68,151.55,84.14,131.77Z" transform="translate(-76.53 -111.94)"/><path class="cls-2" d="M124.66,152.63a27.25,27.25,0,0,1-38.32,4.14" transform="translate(-76.53 -111.94)"/><path class="cls-3" d="M87.4,157.44,84,162.17a1.48,1.48,0,0,1-2.55-.26l-2.39-5.31-2.39-5.31a1.48,1.48,0,0,1,1.49-2.08l5.8.59,5.79.58a1.47,1.47,0,0,1,1,2.33Z" transform="translate(-76.53 -111.94)"/><polyline class="cls-6" points="8.6 20.71 15.73 27.01 26.59 36.61"/><polyline class="cls-6" points="14.27 21.48 13.47 25.02 9.8 26.81"/><polyline class="cls-6" points="17.94 22.9 16.35 27.55 11.34 30.09"/><polyline class="cls-6" points="21.19 24.63 19.12 29.5 14 32.69"/><polyline class="cls-6" points="23.71 27.99 21.59 32.19 17.53 35.44"/></svg>