<svg xmlns="http://www.w3.org/2000/svg" viewBox="0 0 52.98 52.86"><defs><style>.cls-1,.cls-4,.cls-6{fill:none;}.cls-1,.cls-3,.cls-4,.cls-5,.cls-6{stroke:#edf0eb;}.cls-1{stroke-miterlimit:10;stroke-width:4px;}.cls-2,.cls-3,.cls-5{fill:#edf0eb;}.cls-3,.cls-4,.cls-5,.cls-6{stroke-linecap:round;stroke-linejoin:round;}.cls-3{stroke-width:2px;}.cls-4{stroke-width:1.5px;}</style></defs><g id="Layer_2" data-name="Layer 2"><g id="Calque_1" data-name="Calque 1"><path class="cls-1" d="M5,11.44A27.25,27.25,0,0,1,43.39,8.63"/><path class="cls-2" d="M42.35,7.93l3.56-4.6a1.48,1.48,0,0,1,2.54.34l2.21,5.39,2.2,5.39a1.47,1.47,0,0,1-1.56,2l-5.77-.78-5.77-.78a1.48,1.48,0,0,1-1-2.37Z"/><path class="cls-3" d="M44.59,20.63s-16.38-.66-18,15.9C26.6,36.53,43.13,39.38,44.59,20.63Z"/><path class="cls-4" d="M7.61,19.83s17.28-.7,19,16.78C26.6,36.61,9.15,39.61,7.61,19.83Z"/><path class="cls-1" d="M48.12,40.7A27.26,27.26,0,0,1,9.8,44.84"/><path class="cls-2" d="M10.87,45.5l-3.4,4.73A1.48,1.48,0,0,1,4.92,50L2.53,44.66.13,39.35a1.48,1.48,0,0,1,1.5-2.07l5.79.58,5.8.58a1.48,1.48,0,0,1,1,2.34Z"/><polyline class="cls-5" points="8.6 20.71 15.73 27.01 26.59 36.61"/><polyline class="cls-6" points="14.27 21.48 13.47 25.02 9.8 26.81"/><polyline class="cls-6" points="17.94 22.9 16.35 27.55 11.34 30.09"/><polyline class="cls-6" points="21.19 24.63 19.12 29.5 14 32.69"/><polyline class="cls-6" points="23.71 27.99 21.59 32.19 17.53 35.44"/></g></g></svg>